# xmcd
#
# Track frame offsets: 
#        150
#        11495
#        23709
#        37431
#        52410
#        63581
#        74808
#        87391
#        100951
#        116174
#        130048
#        146894
#        162541
#
# Disc length: 2442 seconds
#
# Revision: 1
# Processed by: cddbd v1.5.2PL0 Copyright (c) Steve Scherf et al.
# Submitted via: ExactAudioCopy v0.99pb5
#
DISCID=d009880d
DTITLE=Die Tanzsteirer - Musik Ist Leben
DYEAR=2006
DGENRE=Folk
TTITLE0=Musik Ist Leben
TTITLE1=I Bins A Jaga
TTITLE2=Tanzsteirer Polka
TTITLE3=Eispolka
TTITLE4=Alpensehnsucht
TTITLE5=Vorstellpolka
TTITLE6=Paalgraben Walzer
TTITLE7=Marsch Der Steirer
TTITLE8=Kind Der Finsternis
TTITLE9=Tanzsteirer Rock
TTITLE10=Road Car
TTITLE11=Regen
TTITLE12=Knockin On Heavens Door
EXTD=die erste cd
EXTT0=
EXTT1=
EXTT2=
EXTT3=
EXTT4=
EXTT5=
EXTT6=
EXTT7=
EXTT8=
EXTT9=
EXTT10=
EXTT11=
EXTT12=
PLAYORDER=
